<?xml version="1.0" encoding="UTF-8" standalone="no"?>
<svg width="200px" height="193px" viewBox="0 0 200 193" version="1.1" xmlns="http://www.w3.org/2000/svg" xmlns:xlink="http://www.w3.org/1999/xlink">
    <!-- Generator: Sketch 3.6 (26304) - http://www.bohemiancoding.com/sketch -->
    <title>svg</title>
    <desc>Created with Sketch.</desc>
    <defs></defs>
    <g id="Page-1" stroke="none" stroke-width="1" fill="none" fill-rule="evenodd">
        <g id="logo" transform="translate(7.000000, 0.000000)">
            <g id="Group">
                <path d="M93.2774194,68.7761194 C84.2408602,68.7761194 76.8709677,76.1416119 76.8709677,85.1749254 C76.8709677,94.2082388 84.2408602,101.573731 93.2774194,101.573731 C102.313978,101.573731 109.686022,94.2060896 109.686022,85.1749254 C109.686022,76.1437612 102.316129,68.7761194 93.2774194,68.7761194 Z" id="Shape" fill="#1A1A1A"></path>
                <path d="M93.0193548,20.4845373 L93.0150538,0.698507463 C41.5784946,2.40931343 0.174193548,44.8463284 0.174193548,96.6390448 C0.174193548,148.440358 41.5935484,190.883821 93.0301075,192.616119 L93.0344086,113.96203 C68.7182796,112.302806 49.3956989,91.9644179 49.3956989,67.2608955 C49.3956989,42.5638209 68.7053763,22.2318806 93.0193548,20.4845373 Z" id="Shape" fill="#1A1A1A"></path>
                <path d="M94.6580645,20.6607761 C119.227957,22.0040597 138.754839,42.4262687 138.754839,67.2608955 C138.754839,92.1084179 119.208602,112.537075 94.6408602,113.613851 L94.6086022,192.745075 C146.294624,191.152478 187.976344,148.605851 187.976344,96.6390448 C187.976344,44.5927164 146.165591,1.99450746 94.4903226,0.687761194 L94.6580645,20.6607761 Z" id="Shape" fill="#1A1919"></path>
            </g>
        </g>
    </g>
</svg>